<?xml version="1.0" standalone="no"?>
<!DOCTYPE svg PUBLIC "-//W3C//DTD SVG 20010904//EN"
 "http://www.w3.org/TR/2001/REC-SVG-20010904/DTD/svg10.dtd">
<svg version="1.0" xmlns="http://www.w3.org/2000/svg"
 width="1281.000000pt" height="1280.000000pt" viewBox="0 0 1281.000000 1280.000000"
 preserveAspectRatio="xMidYMid meet">

<g transform="translate(0.000000,1280.000000) scale(0.100000,-0.100000)"
fill="#000000" stroke="none">
<path d="M6057 12670 c-2002 -120 -3789 -1148 -4892 -2815 -1426 -2155 -1373
-4994 131 -7095 213 -299 402 -520 683 -801 503 -501 1018 -870 1656 -1184
721 -355 1414 -548 2250 -627 188 -17 852 -17 1040 0 836 79 1529 272 2250
627 638 314 1151 681 1656 1185 280 279 469 501 683 800 1156 1614 1474 3699
855 5596 -397 1216 -1165 2288 -2194 3064 -937 706 -2047 1131 -3225 1235
-214 19 -692 27 -893 15z m606 -2112 c3 -13 67 -399 143 -858 75 -459 140
-838 143 -842 3 -4 392 -71 864 -149 l857 -142 0 -256 0 -256 -856 -142 c-471
-78 -860 -146 -863 -151 -4 -6 -69 -737 -145 -1624 -76 -887 -140 -1630 -143
-1650 l-6 -38 -252 0 -252 0 -6 38 c-3 20 -67 763 -143 1650 -76 887 -141
1618 -145 1623 -3 6 -392 74 -863 152 l-856 142 0 256 0 256 858 142 c471 78
860 145 863 149 3 4 68 383 143 842 76 459 140 845 143 858 l5 22 253 0 253 0
5 -22z m-473 -7153 l215 -215 215 215 215 215 919 -2 918 -3 129 -445 c71
-245 129 -448 129 -452 0 -5 -1136 -8 -2525 -8 -1389 0 -2525 2 -2525 5 0 5
246 866 255 893 3 9 197 12 922 12 l918 0 215 -215z"/>
</g>
</svg>
